<?xml version="1.0" encoding="utf-8"?>
<!-- Generator: Adobe Illustrator 22.0.1, SVG Export Plug-In . SVG Version: 6.00 Build 0)  -->
<svg version="1.1" id="레이어_1" xmlns="http://www.w3.org/2000/svg" xmlns:xlink="http://www.w3.org/1999/xlink" x="0px"
	 y="0px" viewBox="0 0 125 34" style="enable-background:new 0 0 125 34;" xml:space="preserve">
<style type="text/css">
	.st0{fill:none;stroke:#FFFFFF;stroke-miterlimit:10;}
	.st1{fill:#FFFFFF;}
	.st2{fill:#FFFFFF;stroke:#FFFFFF;stroke-miterlimit:10;}
</style>
<g>
	<rect x="1.9" y="0.6" class="st0" width="70.5" height="32.4"/>
	<rect x="89.3" y="0.6" class="st0" width="34.3" height="32.4"/>
	<path class="st1" d="M47.7,19.7c0,1.2-0.4,2.2-1.8,2.2h0c-1.5,0-1.8-1-1.8-2.2V11h-1.6v8.7c0,1.9,1.1,3.5,3.5,3.5h0
		c2.4,0,3.5-1.5,3.5-3.5V11h-1.6V19.7z"/>
	<polygon class="st1" points="17.2,16.1 13.6,16.1 13.6,11 11.9,11 11.9,23 13.6,23 13.6,17.4 17.2,17.4 17.2,23 18.8,23 18.8,11 
		17.2,11 	"/>
	<polygon class="st1" points="64.6,19.6 61.4,11 59,11 59,23 60.6,23 60.6,12.8 64.5,23 66.2,23 66.2,11 64.6,11 	"/>
	<polygon class="st1" points="30.6,16.1 28.4,11 26.7,11 29.8,17.9 29.8,23 31.4,23 31.4,17.9 34.4,11 32.7,11 	"/>
	<rect x="112" y="11" class="st1" width="1.6" height="12.1"/>
	<path class="st1" d="M96.7,11L96.7,11L93.8,23h1.6l0.8-3.4h3.2l0.8,3.4h1.6L98.9,11H96.7z M96.4,18.3l1.4-6l1.4,6H96.4z"/>
	<g>
		<path class="st2" d="M79.7,12.3H79v9.4h0.7c2,0,3.1-0.6,3.1-4.7C82.8,12.9,81.7,12.3,79.7,12.3z"/>
		<path class="st2" d="M72,0.6V33h17.6V0.6H72z M83.2,21.7C82.5,22.7,81.3,23,80,23h-2.6V11H80c1.4,0,2.5,0.4,3.2,1.3
			c0.8,0.9,1.2,2.4,1.2,4.7C84.4,19.3,84,20.8,83.2,21.7z"/>
	</g>
</g>
</svg>
