<?xml version="1.0" encoding="utf-8"?>
<!-- Generator: Adobe Illustrator 22.0.1, SVG Export Plug-In . SVG Version: 6.00 Build 0)  -->
<svg version="1.1" id="레이어_1" xmlns="http://www.w3.org/2000/svg" xmlns:xlink="http://www.w3.org/1999/xlink" x="0px"
	 y="0px" viewBox="0 0 52 52" style="enable-background:new 0 0 52 52;" xml:space="preserve">
<style type="text/css">
	.st0{fill:#FFFFFF;}
</style>
<g>
	<path class="st0" d="M31,16c0,0,0,0.1,0,0.1c0,1.1,0,2.2,0,3.3c0,0.1,0,0.2-0.2,0.2c-0.7,0-1.3,0-2,0c-0.2,0-0.4,0-0.6,0.1
		c-0.4,0.1-0.5,0.4-0.5,0.8c0,0.5,0,1,0,1.4c0,0.3,0,0.5,0,0.8c0,0.1,0,0.2,0.2,0.2c1,0,2,0,2.9,0c0.2,0,0.2,0,0.2,0.2
		c-0.1,0.8-0.2,1.6-0.3,2.4c0,0.3-0.1,0.6-0.1,0.9c0,0.1-0.1,0.1-0.2,0.1c-0.6,0-1.2,0-1.9,0c-0.3,0-0.5,0-0.8,0
		c-0.1,0-0.2,0-0.2,0.2c0,2.8,0,5.6,0,8.3c0,0.6,0,0.5,0,1.1c-1.3,0-2.7,0-4,0c0-1.1,0-1.4,0-2.5c0-2.3,0-4.6,0-7
		c0-0.1,0-0.2-0.2-0.2c-0.8,0-1.6,0-2.4,0c-0.1,0-0.2,0-0.2-0.1c0-1.1,0-2.2,0-3.3c0-0.1,0-0.2,0.2-0.2c0.8,0,1.6,0,2.3,0
		c0.1,0,0.2,0,0.2-0.2c0-0.7,0-1.4,0-2.1c0-0.7,0.1-1.3,0.2-2c0.3-1.2,1-2,2.2-2.3c0.3-0.1,0.6-0.1,0.9-0.2c0.1,0,0.2,0,0.2-0.1
		C28.5,16,29.8,16,31,16z"/>
</g>
<g>
	<path d="M26,2c13.2,0,24,10.8,24,24S39.2,50,26,50S2,39.2,2,26S12.8,2,26,2 M26,0C11.6,0,0,11.6,0,26s11.6,26,26,26s26-11.6,26-26
		S40.4,0,26,0L26,0z"/>
</g>
</svg>
