<?xml version="1.0" encoding="utf-8"?>
<!-- Generator: Adobe Illustrator 22.0.1, SVG Export Plug-In . SVG Version: 6.00 Build 0)  -->
<svg version="1.1" xmlns="http://www.w3.org/2000/svg" xmlns:xlink="http://www.w3.org/1999/xlink" x="0px" y="0px"
	 viewBox="0 0 65 65" style="enable-background:new 0 0 65 65;" xml:space="preserve">
<style type="text/css">
	.st0{display:none;}
	.st1{display:inline;fill:#000333;}
	.st2{display:inline;}
	.st3{fill-rule:evenodd;clip-rule:evenodd;fill:#FFFFFF;}
	.st4{fill:none;stroke:#000333;stroke-miterlimit:10;}
</style>
<g id="레이어_2" class="st0">
	<rect x="0" y="0" class="st1" width="65" height="65"/>
	<g id="instagram-13_2_" class="st2">
		<g>
			<path class="st3" d="M32.5,24.3c-4.5,0-8.2,3.7-8.2,8.2c0,4.5,3.7,8.2,8.2,8.2c4.5,0,8.2-3.7,8.2-8.2
				C40.7,28,37.1,24.3,32.5,24.3z M32.5,37.3c-2.7,0-4.8-2.1-4.8-4.8c0-2.7,2.1-4.8,4.8-4.8c2.7,0,4.8,2.1,4.8,4.8
				C37.3,35.2,35.2,37.3,32.5,37.3z M48.4,25.9c-0.3-5.8-3.5-9-9.3-9.3c-1.7-0.1-2.3-0.1-6.6-0.1c-4.3,0-4.9,0-6.6,0.1
				c-5.8,0.3-9,3.5-9.3,9.3c-0.1,1.7-0.1,2.3-0.1,6.6c0,4.3,0,4.9,0.1,6.6c0.3,5.8,3.5,9,9.3,9.3c1.7,0.1,2.2,0.1,6.6,0.1
				c4.3,0,4.9,0,6.6-0.1c5.8-0.3,9-3.5,9.3-9.3c0.1-1.7,0.1-2.2,0.1-6.6C48.5,28.2,48.5,27.6,48.4,25.9z M45.5,39
				c-0.2,4.3-2.2,6.4-6.6,6.6c-1.7,0.1-2.2,0.1-6.5,0.1c-4.3,0-4.8,0-6.5-0.1c-4.3-0.2-6.4-2.3-6.6-6.6c-0.1-1.7-0.1-2.2-0.1-6.5
				c0-4.3,0-4.8,0.1-6.5c0.2-4.3,2.2-6.4,6.6-6.6c1.7-0.1,2.2-0.1,6.5-0.1c4.3,0,4.8,0,6.5,0.1c4.3,0.2,6.4,2.3,6.6,6.6
				c0.1,1.7,0.1,2.2,0.1,6.5C45.6,36.8,45.6,37.3,45.5,39z M41.1,22.1c-1.1,0-1.9,0.9-1.9,1.9c0,1.1,0.9,1.9,1.9,1.9
				c1.1,0,1.9-0.9,1.9-1.9C43,22.9,42.1,22.1,41.1,22.1z"/>
		</g>
	</g>
</g>
<g id="f_xA0_이미지_1_">
	<circle class="st4" cx="32.5" cy="32.5" r="31.9"/>
	<g id="instagram-13_3_">
		<g>
			<path class="st3" d="M32.5,24.3c-4.5,0-8.2,3.7-8.2,8.2c0,4.5,3.7,8.2,8.2,8.2c4.5,0,8.2-3.7,8.2-8.2
				C40.7,28,37.1,24.3,32.5,24.3z M32.5,37.3c-2.7,0-4.8-2.1-4.8-4.8c0-2.7,2.1-4.8,4.8-4.8c2.7,0,4.8,2.1,4.8,4.8
				C37.3,35.2,35.2,37.3,32.5,37.3z M41.1,22.1c-1.1,0-1.9,0.9-1.9,1.9c0,1.1,0.9,1.9,1.9,1.9c1.1,0,1.9-0.9,1.9-1.9
				C43,22.9,42.1,22.1,41.1,22.1z M48.4,25.9c-0.3-5.8-3.5-9-9.3-9.3c-1.7-0.1-2.3-0.1-6.6-0.1c-4.3,0-4.9,0-6.6,0.1
				c-5.8,0.3-9,3.5-9.3,9.3c-0.1,1.7-0.1,2.3-0.1,6.6c0,4.3,0,4.9,0.1,6.6c0.3,5.8,3.5,9,9.3,9.3c1.7,0.1,2.2,0.1,6.6,0.1
				c4.3,0,4.9,0,6.6-0.1c5.8-0.3,9-3.5,9.3-9.3c0.1-1.7,0.1-2.2,0.1-6.6C48.5,28.2,48.5,27.6,48.4,25.9z M45.5,39
				c-0.2,4.3-2.2,6.4-6.6,6.6c-1.7,0.1-2.2,0.1-6.5,0.1c-4.3,0-4.8,0-6.5-0.1c-4.3-0.2-6.4-2.3-6.6-6.6c-0.1-1.7-0.1-2.2-0.1-6.5
				c0-4.3,0-4.8,0.1-6.5c0.2-4.3,2.2-6.4,6.6-6.6c1.7-0.1,2.2-0.1,6.5-0.1c4.3,0,4.8,0,6.5,0.1c4.3,0.2,6.4,2.3,6.6,6.6
				c0.1,1.7,0.1,2.2,0.1,6.5C45.6,36.8,45.6,37.3,45.5,39z"/>
		</g>
	</g>
</g>
</svg>
