<?xml version="1.0" encoding="iso-8859-1"?>
<!-- Generator: Adobe Illustrator 19.0.0, SVG Export Plug-In . SVG Version: 6.00 Build 0)  -->
<svg version="1.1" id="Layer_1" xmlns="http://www.w3.org/2000/svg" xmlns:xlink="http://www.w3.org/1999/xlink" x="0px" y="0px"
	 width="50px" height="50px" viewBox="0 0 50 50" style="enable-background:new 0 0 50 50;" xml:space="preserve">
<path style="opacity:0.8;fill:#ED1C24;" d="M19.873,11.781H30.51v3.081h-4.485c0,0-2.114,0.313-2.114,2.249
	c0,2.282,2.179,2.549,2.179,2.549h3.957l2.328,24.458H17.193L19.873,11.781z"/>
<path style="fill:none;stroke:#333333;stroke-width:1.2;stroke-linecap:round;stroke-linejoin:round;stroke-miterlimit:10;" d="
	M28.317,5.462c0,0.151-0.123,0.273-0.273,0.273h-6.269c-0.15,0-0.273-0.122-0.273-0.273V0.774c0-0.151,0.122-0.273,0.273-0.273
	h6.269c0.15,0,0.273,0.122,0.273,0.273V5.462z"/>
<path style="fill:none;stroke:#333333;stroke-width:1.2;stroke-linecap:round;stroke-linejoin:round;stroke-miterlimit:10;" d="
	M28.227,5.736c0,0,3.075,1.244,5.214,2.404c0.302,0.164,0.421,2.807,0.734,6.348c0.022,0.272-0.957,1.1-0.935,1.383
	c0.115,1.33,0.237,1.962,0.357,3.484c0.027,0.349,1.06,0.979,1.088,1.335c0.795,10.067,2.624,22.509,2.624,22.509
	s1.35,1.463,0.36,3.655c-0.993,2.191-2.163,2.646-2.163,2.646H25H14.495c0,0-1.171-0.455-2.164-2.646
	c-0.989-2.192,0.361-3.655,0.361-3.655S15.919,8.536,16.56,8.14c1.799-1.11,5.214-2.404,5.214-2.404"/>
<path style="fill:none;stroke:#333333;stroke-width:1.2;stroke-linecap:round;stroke-linejoin:round;stroke-miterlimit:10;" d="
	M19.873,11.781H30.51v3.081h-4.485c0,0-2.114,0.313-2.114,2.249c0,2.282,2.179,2.549,2.179,2.549h3.957l2.328,24.458H17.193
	L19.873,11.781z"/>
</svg>
