<?xml version="1.0" encoding="utf-8"?>
<!-- Generator: Adobe Illustrator 22.0.1, SVG Export Plug-In . SVG Version: 6.00 Build 0)  -->
<svg version="1.1" id="레이어_1" xmlns="http://www.w3.org/2000/svg" xmlns:xlink="http://www.w3.org/1999/xlink" x="0px"
	 y="0px" viewBox="0 0 306 100" style="enable-background:new 0 0 306 100;" xml:space="preserve">
<style type="text/css">
	.st0{fill:#FFFFFF;}
</style>
<g>
	<g>
		<path class="st0" d="M20.7,40v20h-5.9v-7.1h-9V60H0V40h5.8v7.7h9V40H20.7z"/>
	</g>
	<path class="st0" d="M44.9,42.9v6.3h8.2v2.9h-8.2V60h-3V40h11.5v2.9H44.9z"/>
	<path class="st0" d="M72.5,55.2h-9.1L61.4,60h-3.2l8.3-20h2.8l8.3,20h-3.2L72.5,55.2z M71.4,52.4l-3.4-8.6l-3.5,8.6H71.4z"/>
	<path class="st0" d="M123.3,40v20h-3.1v-8.4H109V60h-3.1V40h3.1v8.7h11.3V40H123.3z"/>
	<path class="st0" d="M136.3,40v20h-3.1V40H136.3z"/>
	<path class="st0" d="M167.2,50c0,5.6-4.7,10-10.5,10c-5.8,0-10.5-4.4-10.5-10c0-5.6,4.7-10,10.5-10C162.5,40,167.2,44.4,167.2,50z
		 M164,50c0-3.9-3.1-7.2-7.3-7.2c-4.1,0-7.3,3.2-7.3,7.2c0,3.9,3.1,7.1,7.3,7.1C160.8,57.1,164,53.9,164,50z"/>
	<path class="st0" d="M195.9,40v20h-2.8l-13-14.1V60h-3.5V40h2.7l13.1,14.4V40H195.9z"/>
	<path class="st0" d="M260.2,55.2h-9.3l-2,4.8h-3.2l8.4-20h2.8l8.4,20h-3.2L260.2,55.2z M259.1,52.4l-3.5-8.6l-3.5,8.6H259.1z"/>
	<path class="st0" d="M285.3,57.1V60h-12.2V40h3.2v17.1H285.3z"/>
	<path class="st0" d="M306,57.1V60h-12.2V40h3.2v17.1H306z"/>
	<polygon class="st0" points="218.9,60 218.9,40 222,40 228.4,48 234.7,40 237.9,40 237.9,60 234.7,60 234.7,46 229.4,52 227.3,52 
		222,46 222,60 	"/>
	<g>
		<path class="st0" d="M83.9,57.2l1.7-2.1c1.3,1.4,3.1,2.3,4.9,2.3c2.2,0,3.5-1.1,3.5-2.7c0-1.8-1.3-2.3-3-3.1l-2.6-1.2
			c-1.8-0.8-3.8-2.3-3.8-5.1c0-3,2.6-5.3,6.1-5.3c2.2,0,4.2,0.9,5.6,2.4l-1.5,1.9c-1.2-1.1-2.4-1.7-4.1-1.7c-1.9,0-3.1,0.9-3.1,2.5
			c0,1.7,1.5,2.3,3,2.9l2.5,1.1c2.2,1,3.8,2.4,3.8,5.2c0,3.1-2.5,5.6-6.5,5.6C87.9,60,85.6,59,83.9,57.2z"/>
	</g>
</g>
</svg>
