<?xml version="1.0" encoding="utf-8"?>
<!-- Generator: Adobe Illustrator 22.0.1, SVG Export Plug-In . SVG Version: 6.00 Build 0)  -->
<svg version="1.1" id="레이어_1" xmlns="http://www.w3.org/2000/svg" xmlns:xlink="http://www.w3.org/1999/xlink" x="0px"
	 y="0px" viewBox="0 0 52 52" style="enable-background:new 0 0 52 52;" xml:space="preserve">
<style type="text/css">
	.st0{fill:#FFFFFF;}
</style>
<g>
	<path d="M26,2c13.2,0,24,10.8,24,24S39.2,50,26,50S2,39.2,2,26S12.8,2,26,2 M26,0C11.6,0,0,11.6,0,26s11.6,26,26,26s26-11.6,26-26
		S40.4,0,26,0L26,0z"/>
</g>
<polygon class="st0" points="17.5,17 21.5,17 29.5,26 29.5,17 34.5,17 34.5,35 29.5,35 22.5,26 22.5,35 17.5,35 "/>
</svg>
