<?xml version="1.0" encoding="iso-8859-1"?>
<!-- Generator: Adobe Illustrator 19.0.0, SVG Export Plug-In . SVG Version: 6.00 Build 0)  -->
<svg version="1.1" id="Layer_1" xmlns="http://www.w3.org/2000/svg" xmlns:xlink="http://www.w3.org/1999/xlink" x="0px" y="0px"
	 width="50px" height="50px" viewBox="0 0 50 50" style="enable-background:new 0 0 50 50;" xml:space="preserve">
<g>
	<path style="opacity:0.8;fill:#ED1C24;" d="M31.467,43.976c0,0.611-0.494,1.107-1.105,1.107H19.637
		c-0.61,0-1.106-0.496-1.106-1.107v-18.13c0-0.611,0.496-1.106,1.106-1.106h10.725c0.611,0,1.105,0.495,1.105,1.106V43.976z"/>
	<path style="fill:none;stroke:#333333;stroke-width:1.2;stroke-miterlimit:10;" d="M31.467,43.976c0,0.611-0.494,1.107-1.105,1.107
		H19.637c-0.61,0-1.106-0.496-1.106-1.107v-18.13c0-0.611,0.496-1.106,1.106-1.106h10.725c0.611,0,1.105,0.495,1.105,1.106V43.976z"
		/>
	<path style="fill:none;stroke:#333333;stroke-width:1.2;stroke-miterlimit:10;" d="M31.797,20.416h4.145v27.851
		c0,0.682-0.555,1.234-1.234,1.234H15.293c-0.682,0-1.234-0.553-1.234-1.234V20.416h12.488"/>
	<g>
		<path style="fill:none;stroke:#333333;stroke-width:1.2;stroke-miterlimit:10;" d="M31.797,20.416h4.145
			c0-4.239-2.414-8.415-5.938-9.938c-0.135,0.058-0.284,0.09-0.441,0.09h-9.125c-0.157,0-0.306-0.033-0.441-0.09
			c-3.523,1.523-5.938,5.7-5.938,9.938h12.488"/>
	</g>
	
		<rect x="22.11" y="2.793" style="fill:none;stroke:#333333;stroke-width:1.2;stroke-miterlimit:10;" width="5.781" height="4.825"/>
	<path style="fill:none;stroke:#333333;stroke-width:1.2;stroke-miterlimit:10;" d="M31.165,9.058c0,0.784-0.636,1.42-1.42,1.42
		h-9.489c-0.783,0-1.419-0.636-1.419-1.42l0,0c0-0.784,0.636-1.419,1.419-1.419h9.489C30.529,7.639,31.165,8.274,31.165,9.058
		L31.165,9.058z"/>
</g>
<path style="display:none;opacity:0.8;fill:#ED1C24;" d="M-9.616,44.976c0,0.611-0.494,1.107-1.106,1.107h-12.725
	c-0.61,0-1.106-0.496-1.106-1.107v-15.13c0-0.611,0.496-1.106,1.106-1.106h12.725c0.611,0,1.106,0.495,1.106,1.106V44.976z"/>
<path style="display:none;fill:none;stroke:#333333;stroke-width:1.2;stroke-miterlimit:10;" d="M-9.616,44.976
	c0,0.611-0.494,1.107-1.106,1.107h-12.725c-0.61,0-1.106-0.496-1.106-1.107v-15.13c0-0.611,0.496-1.106,1.106-1.106h12.725
	c0.611,0,1.106,0.495,1.106,1.106V44.976z"/>
<path style="display:none;fill:none;stroke:#333333;stroke-width:1.2;stroke-miterlimit:10;" d="M-11.286,23.416h5.145v24.851
	c0,0.682-0.555,1.234-1.234,1.234h-19.414c-0.682,0-1.234-0.553-1.234-1.234V23.416h13.488"/>
<rect x="-19.973" y="9.493" style="display:none;opacity:0.8;fill:#ED1C24;" width="5.781" height="2.825"/>
<g style="display:none;">
	<path style="display:inline;fill:none;stroke:#333333;stroke-width:1.2;stroke-miterlimit:10;" d="M-11.286,23.416h5.145
		c0-4.238-2.414-7.415-5.939-8.938c-0.135,0.058-0.284,0.09-0.44,0.09h-9.125c-0.157,0-0.305-0.033-0.441-0.09
		c-3.524,1.523-5.938,4.7-5.938,8.938h13.488"/>
</g>
<rect x="-19.973" y="9.493" style="display:none;fill:none;stroke:#333333;stroke-width:1.2;stroke-miterlimit:10;" width="5.781" height="2.825"/>
<g style="display:none;">
	<g style="display:inline;">
		<g>
			<g>
				<path style="fill:#333333;" d="M-16.418,6.966h-1.331V5.783h1.331V6.966z M-16.418,4.207h-1.331V3.024h1.331V4.207z
					 M-16.418,1.448h-1.331V0.265h1.331V1.448z"/>
			</g>
		</g>
	</g>
	<g style="display:inline;">
		<g>
			<g>
				<path style="fill:#333333;" d="M-21.093,7.701l-0.651-0.988l1.111-0.732l0.651,0.988L-21.093,7.701z M-22.612,5.395
					l-0.651-0.989l1.112-0.732l0.651,0.988L-22.612,5.395z M-24.132,3.089l-0.651-0.989l1.111-0.732l0.651,0.988L-24.132,3.089z"/>
			</g>
		</g>
	</g>
	<g style="display:inline;">
		<g>
			<g>
				<path style="fill:#333333;" d="M-13.076,7.701l-1.111-0.732l0.651-0.988l1.111,0.732L-13.076,7.701z M-11.555,5.395
					l-1.111-0.732l0.65-0.988l1.111,0.732L-11.555,5.395z M-10.037,3.089l-1.111-0.732l0.65-0.988l1.112,0.732L-10.037,3.089z"/>
			</g>
		</g>
	</g>
</g>
<path style="display:none;fill:none;stroke:#333333;stroke-width:1.2;stroke-miterlimit:10;" d="M-11.395,13.443
	c0,0.621-0.504,1.125-1.125,1.125h-9.125c-0.621,0-1.125-0.504-1.125-1.125l0,0c0-0.621,0.504-1.125,1.125-1.125h9.125
	C-11.899,12.318-11.395,12.822-11.395,13.443L-11.395,13.443z"/>
<g>
	
		<rect x="10.776" y="-1.647" transform="matrix(0.2258 -0.9742 0.9742 0.2258 6.4048 13.3382)" style="fill:#333333;" width="1.637" height="8.572"/>
	
		<rect x="3.619" y="0.152" transform="matrix(0.9743 0.2253 -0.2253 0.9743 0.3313 -0.9633)" style="fill:#333333;" width="1.535" height="1.637"/>
	
		<rect x="10.762" y="8.176" transform="matrix(-0.5385 -0.8426 0.8426 -0.5385 7.3498 28.8682)" style="fill:#333333;" width="1.636" height="8.491"/>
	
		<rect x="4.584" y="15.602" transform="matrix(-0.5383 -0.8427 0.8427 -0.5383 -5.4855 29.7341)" style="fill:#333333;" width="1.636" height="1.534"/>
	
		<rect x="8.468" y="3.813" transform="matrix(0.1853 0.9827 -0.9827 0.1853 14.9957 -2.9652)" style="fill:#333333;" width="1.636" height="7.497"/>
	
		<rect x="2.095" y="7.954" transform="matrix(0.9827 -0.1852 0.1852 0.9827 -1.5748 0.6817)" style="fill:#333333;" width="1.535" height="1.636"/>
</g>
</svg>
