<?xml version="1.0" encoding="iso-8859-1"?>
<!-- Generator: Adobe Illustrator 19.0.0, SVG Export Plug-In . SVG Version: 6.00 Build 0)  -->
<svg version="1.1" id="Layer_1" xmlns="http://www.w3.org/2000/svg" xmlns:xlink="http://www.w3.org/1999/xlink" x="0px" y="0px"
	 width="50px" height="50px" viewBox="0 0 50 50" style="enable-background:new 0 0 50 50;" xml:space="preserve">
<g>
	<path style="opacity:0.8;fill:#ED1C24;" d="M17.88,5.34c0,0,0.146,0.729-0.394,2.57c-0.972,3.307-4.361,7.23-4.361,7.23
		l0.494,1.691c2.896-1.142,7.337-9.018,7.337-9.018h2.464C22.528,5.636,17.88,5.34,17.88,5.34z"/>
	<path style="opacity:0.8;fill:#ED1C24;" d="M31.239,0.991c-4.152-0.89-13.753-0.298-13.753-0.298V5.36
		C17.728,5.355,17.88,5.34,17.88,5.34s4.648,0.295,5.539,2.474v3.261h9.402c0,0-0.197-1.087,0.493-4.152
		c0.693-3.063,3.562-3.063,3.562-3.461C36.876,3.065,35.391,1.878,31.239,0.991z"/>
	<path style="fill:none;stroke:#333333;stroke-width:1.2;stroke-linecap:round;stroke-linejoin:round;stroke-miterlimit:10;" d="
		M17.486,0.693c0,0,9.601-0.591,13.753,0.298c4.152,0.887,5.638,2.074,5.638,2.47c0,0.398-2.868,0.398-3.562,3.461
		c-0.69,3.065-0.493,4.152-0.493,4.152H23.42V7.814h-2.464c0,0-4.441,7.877-7.337,9.018l-0.494-1.691c0,0,3.39-3.923,4.361-7.23
		c0.54-1.841,0.394-2.57,0.394-2.57s-4.053,0.396-4.053-2.275C13.828,0.396,17.486,0.693,17.486,0.693z"/>
	
		<line style="fill:none;stroke:#333333;stroke-width:1.2;stroke-linecap:round;stroke-linejoin:round;stroke-miterlimit:10;" x1="17.486" y1="0.693" x2="17.486" y2="5.439"/>
	<path style="fill:none;stroke:#333333;stroke-width:1.2;stroke-linecap:round;stroke-linejoin:round;stroke-miterlimit:10;" d="
		M23.905,11.087h8.917c0,0,1.577,4.392,2.431,17.949c0.854,13.557,0,20.465,0,20.465H17.253c0,0-3.084-11.612,1.705-20.293
		c2.728-4.948,3.496-4.776,4.178-9.124C23.82,15.734,23.905,11.087,23.905,11.087z"/>
	<path style="fill:none;stroke:#333333;stroke-width:1.2;stroke-linecap:round;stroke-linejoin:round;stroke-miterlimit:10;" d="
		M21.123,43.912h9.059c0,0,1.63-0.077,1.831-3.41c0.207-3.336-0.27-12.524-0.27-12.524s-0.136-2.295-3.331-2.073
		c-3.192,0.223-6.339,2.073-8.037,9.042C18.672,41.909,19.764,43.834,21.123,43.912z"/>
	<path style="fill:none;stroke:#333333;stroke-width:1.2;stroke-linecap:round;stroke-linejoin:round;stroke-miterlimit:10;" d="
		M17.88,5.34c0,0,4.648,0.295,5.539,2.474"/>
</g>
</svg>
