<?xml version="1.0" encoding="iso-8859-1"?>
<!-- Generator: Adobe Illustrator 19.0.0, SVG Export Plug-In . SVG Version: 6.00 Build 0)  -->
<svg version="1.1" id="Layer_1" xmlns="http://www.w3.org/2000/svg" xmlns:xlink="http://www.w3.org/1999/xlink" x="0px" y="0px"
	 width="50px" height="50px" viewBox="0 0 50 50" style="enable-background:new 0 0 50 50;" xml:space="preserve">
<path style="opacity:0.8;fill:#ED1C24;" d="M35.346,5.846c0,0,0-2.164-1.503-3.71c-1.502-1.548-3.535-1.635-3.535-1.635H15.087
	c0,0-0.243,0.222-0.378,1.944c-0.131,1.723,0,8.621,0,8.621h20.637V5.846z"/>
<path style="fill:none;stroke:#333333;stroke-width:1.2;stroke-linecap:round;stroke-linejoin:round;stroke-miterlimit:10;" d="
	M35.346,5.846c0,0,0-2.164-1.503-3.71c-1.502-1.548-3.535-1.635-3.535-1.635H15.087c0,0-0.243,0.222-0.378,1.944
	c-0.131,1.723,0,8.621,0,8.621h20.637V5.846z"/>
<path style="fill:none;stroke:#333333;stroke-width:1.2;stroke-linecap:round;stroke-linejoin:round;stroke-miterlimit:10;" d="
	M35.346,11.066H14.709v31.632c0,0-0.64,6.098,2.609,6.803h7.864h7.29c3.094-0.752,2.874-6.186,2.874-6.186V11.066z M18.739,17.103
	c0-0.538,0.434-0.974,0.971-0.974h10.582c0.536,0,0.971,0.436,0.971,0.974v23.97c0,0.536-0.434,0.974-0.971,0.974H19.709
	c-0.537,0-0.971-0.438-0.971-0.974V17.103z M15.054,45.774c0,0,10.139,1.782,19.766,0C25.193,47.556,15.054,45.774,15.054,45.774z"
	/>
<path style="fill:none;stroke:#333333;stroke-width:1.2;stroke-linecap:round;stroke-linejoin:round;stroke-miterlimit:10;" d="
	M19.709,42.046h10.582c0.536,0,0.971-0.438,0.971-0.974v-23.97c0-0.538-0.434-0.974-0.971-0.974H19.709
	c-0.537,0-0.971,0.436-0.971,0.974v23.97C18.739,41.609,19.172,42.046,19.709,42.046z"/>
</svg>
