<?xml version="1.0" encoding="iso-8859-1"?>
<!-- Generator: Adobe Illustrator 19.0.0, SVG Export Plug-In . SVG Version: 6.00 Build 0)  -->
<svg version="1.1" id="Layer_1" xmlns="http://www.w3.org/2000/svg" xmlns:xlink="http://www.w3.org/1999/xlink" x="0px" y="0px"
	 width="50px" height="50px" viewBox="0 0 50 50" style="enable-background:new 0 0 50 50;" xml:space="preserve">
<g>
	<path style="opacity:0.8;fill:#ED1C24;" d="M25.001,44.876c0,0,4.32-0.007,4.99-0.007c0.673,0,1.475-0.205,1.668-1.899
		c0.297-2.58-0.129-13.49-0.369-15.062c-0.24-1.572-1.152-1.354-1.152-1.354h-5.137h-5.136c0,0-0.912-0.219-1.152,1.354
		c-0.238,1.572-0.666,12.482-0.372,15.062c0.196,1.693,0.997,1.899,1.669,1.899C20.683,44.87,25.001,44.876,25.001,44.876z"/>
	<g>
		<path style="fill:none;stroke:#333333;stroke-width:1.2;stroke-linecap:round;stroke-linejoin:round;stroke-miterlimit:10;" d="
			M22.043,1.004l-1,8.428h8.397l-1-8.428C28.44,1.004,26.362-0.129,22.043,1.004z"/>
		<path style="fill:none;stroke:#333333;stroke-width:1.2;stroke-linecap:round;stroke-linejoin:round;stroke-miterlimit:10;" d="
			M20.753,9.782h8.113c0,0,5.021-0.002,5.021,8.612c0,0.085-0.654,0.61-0.644,0.698c0.095,0.773,0.187,3.075,0.279,3.927
			c0.013,0.115,0.696,0.057,0.709,0.176c0.988,9.333,1.766,22.481-0.471,26.306h-9.453h0.191H16.24
			c-3.167-5.418-0.288-28.534,0.673-34.039c0.962-5.505,4.226-5.68,4.226-5.68h8.11"/>
	</g>
</g>
<path style="fill:none;stroke:#333333;stroke-width:1.2;stroke-linecap:round;stroke-linejoin:round;stroke-miterlimit:10;" d="
	M25.001,44.876c0,0,4.32-0.007,4.99-0.007c0.673,0,1.475-0.205,1.668-1.899c0.297-2.58-0.129-13.49-0.369-15.062
	c-0.24-1.572-1.152-1.354-1.152-1.354h-5.137h-5.136c0,0-0.912-0.219-1.152,1.354c-0.238,1.572-0.666,12.482-0.372,15.062
	c0.196,1.693,0.997,1.899,1.669,1.899C20.683,44.87,25.001,44.876,25.001,44.876z"/>
<path style="fill:none;stroke:#333333;stroke-width:1.2;stroke-linecap:round;stroke-linejoin:round;stroke-miterlimit:10;" d="
	M32.736,19.092h-4.791c-1.093,0-1.978,0.885-1.978,1.978l0,0c0,1.093,0.885,1.979,1.978,1.979h5.852"/>
</svg>
