<?xml version="1.0" encoding="iso-8859-1"?>
<!-- Generator: Adobe Illustrator 19.0.0, SVG Export Plug-In . SVG Version: 6.00 Build 0)  -->
<svg version="1.1" id="Layer_1" xmlns="http://www.w3.org/2000/svg" xmlns:xlink="http://www.w3.org/1999/xlink" x="0px" y="0px"
	 width="50px" height="50px" viewBox="0 0 50 50" style="enable-background:new 0 0 50 50;" xml:space="preserve">
<path style="display:none;opacity:0.8;fill:#ED1C24;" d="M23.023,49.46c11.414,0.853,20.391-6.348,20.681-6.935
	c0.29-0.588-0.063-1.274-0.063-1.274s-3.958-6.352-3.958-15.88c0-9.53,3.492-16.336,3.835-16.912
	c0.441-0.741-0.047-1.163-0.047-1.163c-5.928-9.376-25.414-6.244-25.414-6.244S31.193-1.461,37.347,6.27c0,0,0.599,0.132-0.09,1.858
	c0,0-4.06,9.065-3.658,18.375c0.401,9.31,3.805,15.45,3.805,15.45s0.982,1.547-0.183,2.461
	C37.221,44.414,30.818,49.482,23.023,49.46z"/>
<g>
	<path style="opacity:0.8;fill:#ED1C24;" d="M14.521,14.959c0.697,2.203,1.765,6.327,1.782,11.002
		c0.02,5.288-2.138,11.355-2.451,11.989s0,1.056,0,1.056s2.365,2.847,7.511,3.638V14.959H14.521z"/>
	<path style="fill:none;stroke:#333333;stroke-width:1.2;stroke-linecap:round;stroke-linejoin:round;stroke-miterlimit:10;" d="
		M22.848,47.957c9.102,0,14.084-5.117,14.084-5.117s0.489-0.563,0-1.409c-0.49-0.845-3.869-8.917-3.837-15.959
		c0.042-9.248,3.715-16.9,3.715-16.9s0.279-0.435-0.026-0.918C36.475,7.168,33.441,2.21,22.848,2.21
		c-10.595,0-13.628,4.958-13.935,5.443C8.607,8.136,8.884,8.571,8.884,8.571s3.675,7.652,3.716,16.9
		c0.031,7.042-3.347,15.115-3.837,15.959c-0.489,0.847,0,1.409,0,1.409S13.743,47.957,22.848,47.957z"/>
	<path style="fill:none;stroke:#333333;stroke-width:1.2;stroke-linecap:round;stroke-linejoin:round;stroke-miterlimit:10;" d="
		M22.848,42.853c5.813,0,8.996-3.847,8.996-3.847s0.313-0.422,0-1.056c-0.313-0.634-2.47-6.701-2.452-11.989
		c0.027-6.946,2.373-12.693,2.373-12.693s0.176-0.327-0.016-0.691c-0.198-0.363-2.136-4.088-8.901-4.088
		c-6.767,0-8.705,3.725-8.9,4.088c-0.194,0.364-0.018,0.691-0.018,0.691s2.347,5.748,2.373,12.693
		c0.02,5.288-2.138,11.355-2.451,11.989s0,1.056,0,1.056S17.033,42.853,22.848,42.853z"/>
	
		<line style="fill:none;stroke:#333333;stroke-width:1.2;stroke-linecap:round;stroke-linejoin:round;stroke-miterlimit:10;" x1="14.521" y1="14.959" x2="31.173" y2="14.959"/>
	<path style="fill:none;stroke:#333333;stroke-width:1.2;stroke-linecap:round;stroke-linejoin:round;stroke-miterlimit:10;" d="
		M18.521,2.521c0,0,18.294-2.941,23.858,5.861c0,0,0.459,0.396,0.044,1.092c-0.322,0.54-3.601,6.93-3.601,15.877
		c0,8.944,3.717,14.906,3.717,14.906s0.33,0.646,0.058,1.198c-0.273,0.552-8.744,7.468-19.49,6.501"/>
	
		<line style="fill:none;stroke:#333333;stroke-width:1.2;stroke-linecap:round;stroke-linejoin:round;stroke-miterlimit:10;" x1="36.923" y1="8.12" x2="42.706" y2="8.858"/>
	
		<line style="fill:none;stroke:#333333;stroke-width:1.2;stroke-linecap:round;stroke-linejoin:round;stroke-miterlimit:10;" x1="21.362" y1="14.959" x2="21.362" y2="42.644"/>
</g>
</svg>
